# xmcd CD database file
#
# Track frame offsets:
#	150
#	16907
#	35522
#	52890
#	70787
#	88522
#	107380
#	126092
#	145377
#	161882
#	177997
#
# Disc length: 2547 seconds
#
# Revision: 2
# Processed by: cddbd v1.5.2PL0 Copyright (c) Steve Scherf et al.
# Submitted via: CDex 1.51
#
DISCID=8c09f10b
DTITLE=Gretchen Peters - The Secret of Life
DYEAR=1996
DGENRE=Country
TTITLE0=Waiting For the Light to Turn Green
TTITLE1=Border Town
TTITLE2=I Ain't Ever Satisfied
TTITLE3=I Was Looking For You
TTITLE4=On a Bus to St. Cloud
TTITLE5=Over Africa
TTITLE6=This Uncivil War
TTITLE7=The Secret of Life
TTITLE8=A Room With a View
TTITLE9=Circus Girl
TTITLE10=When You Are Old
EXTD=YEAR: 1996
EXTT0=
EXTT1=
EXTT2=
EXTT3=
EXTT4=
EXTT5=
EXTT6=
EXTT7=
EXTT8=
EXTT9=
EXTT10=
PLAYORDER=
